<svg xmlns="http://www.w3.org/2000/svg" style="display: none;">
  <!-- Technology Icons -->
  <defs>
    <symbol id="server-icon" viewBox="0 0 24 24">
      <path fill="currentColor" d="M2 2h20v4H2V2zm0 6h20v4H2V8zm0 6h20v4H2v-4zm0 6h20v4H2v-4z"/>
    </symbol>
    
    <symbol id="cloud-icon" viewBox="0 0 24 24">
      <path fill="currentColor" d="M19.35 10.04C18.67 6.59 15.64 4 12 4 9.11 4 6.6 5.64 5.35 8.04 2.34 8.36 0 10.91 0 14c0 3.31 2.69 6 6 6h13c2.76 0 5-2.24 5-5 0-2.64-2.05-4.78-4.65-4.96z"/>
    </symbol>
    
    <symbol id="shield-icon" viewBox="0 0 24 24">
      <path fill="currentColor" d="M12,1L3,5V11C3,16.55 6.84,21.74 12,23C17.16,21.74 21,16.55 21,11V5L12,1M12,7C13.4,7 14.8,8.6 14.8,10V11H16V18H8V11H9.2V10C9.2,8.6 10.6,7 12,7M12,8.2C11.2,8.2 10.4,8.7 10.4,10V11H13.6V10C13.6,8.7 12.8,8.2 12,8.2Z"/>
    </symbol>
    
    <symbol id="network-icon" viewBox="0 0 24 24">
      <path fill="currentColor" d="M1 9L9 5L16 9L23 6V8L16 11L9 7L1 11V9ZM9 19C7.89 19 7 18.11 7 17V15H9V17H15V15H17V17C17 18.11 16.11 19 15 19H9Z"/>
    </symbol>
    
    <symbol id="automation-icon" viewBox="0 0 24 24">
      <path fill="currentColor" d="M12,18.5A1.5,1.5 0 0,1 10.5,17A1.5,1.5 0 0,1 12,15.5A1.5,1.5 0 0,1 13.5,17A1.5,1.5 0 0,1 12,18.5M12,17A1,1 0 0,0 13,16A1,1 0 0,0 12,15A1,1 0 0,0 11,16A1,1 0 0,0 12,17M16,12V22H8V12H16M16,10H8L12,6L16,10Z"/>
    </symbol>
    
    <symbol id="team-icon" viewBox="0 0 24 24">
      <path fill="currentColor" d="M16 4C18.2 4 20 5.8 20 8S18.2 12 16 12 12 10.2 12 8 13.8 4 16 4M16 14C20.4 14 24 15.8 24 18V20H8V18C8 15.8 11.6 14 16 14M12.5 11.5C14.4 11.5 16 9.9 16 8S14.4 4.5 12.5 4.5 9 6.1 9 8 10.6 11.5 12.5 11.5M12.5 13.5C8.1 13.5 0 15.6 0 20V22H7V20C7 18.6 8.2 17.2 12.5 17.2S18 18.6 18 20V22H25V20C25 15.6 16.9 13.5 12.5 13.5Z"/>
    </symbol>
    
    <symbol id="certificate-icon" viewBox="0 0 24 24">
      <path fill="currentColor" d="M4,3C2.89,3 2,3.89 2,5V15C2,16.11 2.89,17 4,17H11V19.5L16,17.5L21,19.5V17H20C21.11,17 22,16.11 22,15V5C22,3.89 21.11,3 20,3H4M12,6L13.5,9H17L14.5,11L15.5,14.5L12,12.5L8.5,14.5L9.5,11L7,9H10.5L12,6Z"/>
    </symbol>
    
    <symbol id="project-icon" viewBox="0 0 24 24">
      <path fill="currentColor" d="M16,6H12.5L11,4.5H7A1.5,1.5 0 0,0 5.5,6V18A1.5,1.5 0 0,0 7,19.5H16A1.5,1.5 0 0,0 17.5,18V7.5A1.5,1.5 0 0,0 16,6M14.5,17H7.5V15.5H14.5V17M16,13.5H7.5V12H16V13.5M16,10.5H7.5V9H16V10.5Z"/>
    </symbol>
  </defs>
  
  <!-- Decorative Elements -->
  <defs>
    <linearGradient id="gradient1" x1="0%" y1="0%" x2="100%" y2="100%">
      <stop offset="0%" style="stop-color:#667eea"/>
      <stop offset="100%" style="stop-color:#764ba2"/>
    </linearGradient>
    
    <linearGradient id="gradient2" x1="0%" y1="0%" x2="100%" y2="100%">
      <stop offset="0%" style="stop-color:#f093fb"/>
      <stop offset="100%" style="stop-color:#f5576c"/>
    </linearGradient>
    
    <linearGradient id="gradient3" x1="0%" y1="0%" x2="100%" y2="100%">
      <stop offset="0%" style="stop-color:#4facfe"/>
      <stop offset="100%" style="stop-color:#00f2fe"/>
    </linearGradient>
  </defs>
  
  <!-- Background Patterns -->
  <defs>
    <pattern id="dots" patternUnits="userSpaceOnUse" width="20" height="20">
      <circle cx="10" cy="10" r="1.5" fill="currentColor" opacity="0.1"/>
    </pattern>
    
    <pattern id="grid" patternUnits="userSpaceOnUse" width="40" height="40">
      <path d="M 40 0 L 0 0 0 40" fill="none" stroke="currentColor" stroke-width="1" opacity="0.05"/>
    </pattern>
  </defs>
</svg>
